<mxfile host="app.diagrams.net" modified="2024-03-25T15:37:14.050Z" agent="Mozilla/5.0 (Windows NT 10.0; Win64; x64) AppleWebKit/537.36 (KHTML, like Gecko) Chrome/122.0.0.0 Safari/537.36" etag="uVD3g9MIx5Y9G6ZrppX6" version="24.1.0" type="device">
  <diagram id="5e19ZycACNX_leYh8HEj" name="Sayfa -1">
    <mxGraphModel dx="1194" dy="662" grid="1" gridSize="10" guides="1" tooltips="1" connect="1" arrows="1" fold="1" page="1" pageScale="1" pageWidth="1654" pageHeight="1169" math="0" shadow="0">
      <root>
        <mxCell id="0" />
        <mxCell id="1" parent="0" />
        <mxCell id="6weRPcDpU1P9rH5oT9ui-3" value="Batch Network Diagram" style="text;strokeColor=none;fillColor=none;html=1;fontSize=24;fontStyle=1;verticalAlign=middle;align=center;" parent="1" vertex="1">
          <mxGeometry x="727" width="100" height="40" as="geometry" />
        </mxCell>
        <mxCell id="6weRPcDpU1P9rH5oT9ui-5" value="" style="outlineConnect=0;dashed=0;verticalLabelPosition=bottom;verticalAlign=top;align=center;html=1;shape=mxgraph.aws3.management_console;fillColor=#D2D3D3;gradientColor=none;" parent="1" vertex="1">
          <mxGeometry x="114" y="590" width="63" height="63" as="geometry" />
        </mxCell>
        <mxCell id="6weRPcDpU1P9rH5oT9ui-6" value="&lt;font style=&quot;font-size: 14px;&quot;&gt;Webhook Client&lt;/font&gt;" style="text;html=1;align=center;verticalAlign=middle;whiteSpace=wrap;rounded=0;" parent="1" vertex="1">
          <mxGeometry x="82" y="653" width="138" height="30" as="geometry" />
        </mxCell>
        <mxCell id="6weRPcDpU1P9rH5oT9ui-7" value="" style="rounded=0;whiteSpace=wrap;html=1;" parent="1" vertex="1">
          <mxGeometry x="220" y="80" width="240" height="420" as="geometry" />
        </mxCell>
        <mxCell id="aEoZDH6IMn2_SVr5e5bm-2" style="edgeStyle=orthogonalEdgeStyle;rounded=0;orthogonalLoop=1;jettySize=auto;html=1;exitX=1;exitY=0.5;exitDx=0;exitDy=0;entryX=0;entryY=0.5;entryDx=0;entryDy=0;" parent="1" source="6weRPcDpU1P9rH5oT9ui-8" target="6weRPcDpU1P9rH5oT9ui-36" edge="1">
          <mxGeometry relative="1" as="geometry">
            <Array as="points">
              <mxPoint x="490" y="145" />
              <mxPoint x="490" y="450" />
            </Array>
          </mxGeometry>
        </mxCell>
        <mxCell id="aEoZDH6IMn2_SVr5e5bm-3" style="edgeStyle=orthogonalEdgeStyle;rounded=0;orthogonalLoop=1;jettySize=auto;html=1;exitX=1;exitY=0.5;exitDx=0;exitDy=0;entryX=0;entryY=0.5;entryDx=0;entryDy=0;" parent="1" source="6weRPcDpU1P9rH5oT9ui-8" target="6weRPcDpU1P9rH5oT9ui-40" edge="1">
          <mxGeometry relative="1" as="geometry">
            <Array as="points">
              <mxPoint x="470" y="145" />
              <mxPoint x="470" y="570" />
            </Array>
          </mxGeometry>
        </mxCell>
        <mxCell id="DCrG8_Zui0ShofcKxdxm-6" style="edgeStyle=orthogonalEdgeStyle;rounded=0;orthogonalLoop=1;jettySize=auto;html=1;exitX=1;exitY=0.5;exitDx=0;exitDy=0;entryX=0;entryY=0.5;entryDx=0;entryDy=0;" parent="1" source="6weRPcDpU1P9rH5oT9ui-8" target="6weRPcDpU1P9rH5oT9ui-28" edge="1">
          <mxGeometry relative="1" as="geometry">
            <Array as="points">
              <mxPoint x="395" y="210" />
              <mxPoint x="503" y="210" />
              <mxPoint x="503" y="265" />
            </Array>
          </mxGeometry>
        </mxCell>
        <mxCell id="6weRPcDpU1P9rH5oT9ui-8" value="" style="rounded=0;whiteSpace=wrap;html=1;" parent="1" vertex="1">
          <mxGeometry x="285" y="100" width="110" height="90" as="geometry" />
        </mxCell>
        <mxCell id="6weRPcDpU1P9rH5oT9ui-9" value="&lt;font style=&quot;font-size: 14px;&quot;&gt;Scheduler Service&lt;/font&gt;" style="text;html=1;align=center;verticalAlign=middle;whiteSpace=wrap;rounded=0;" parent="1" vertex="1">
          <mxGeometry x="295" y="130" width="100" height="30" as="geometry" />
        </mxCell>
        <mxCell id="6weRPcDpU1P9rH5oT9ui-10" value="" style="rounded=0;whiteSpace=wrap;html=1;" parent="1" vertex="1">
          <mxGeometry x="285" y="220" width="110" height="90" as="geometry" />
        </mxCell>
        <mxCell id="lzx4Aw5pMxuQN_m3yhKN-1" style="edgeStyle=orthogonalEdgeStyle;rounded=0;orthogonalLoop=1;jettySize=auto;html=1;entryX=0;entryY=0.86;entryDx=0;entryDy=0;entryPerimeter=0;" parent="1" target="6weRPcDpU1P9rH5oT9ui-17" edge="1">
          <mxGeometry relative="1" as="geometry">
            <mxPoint x="350" y="220" as="sourcePoint" />
            <Array as="points">
              <mxPoint x="420" y="220" />
              <mxPoint x="420" y="187" />
            </Array>
            <mxPoint x="830" y="187" as="targetPoint" />
          </mxGeometry>
        </mxCell>
        <mxCell id="6weRPcDpU1P9rH5oT9ui-13" value="&lt;font style=&quot;font-size: 14px;&quot;&gt;Notification Service&lt;/font&gt;" style="text;html=1;align=center;verticalAlign=middle;whiteSpace=wrap;rounded=0;" parent="1" vertex="1">
          <mxGeometry x="295" y="250" width="100" height="30" as="geometry" />
        </mxCell>
        <mxCell id="6weRPcDpU1P9rH5oT9ui-14" value="" style="rounded=0;whiteSpace=wrap;html=1;" parent="1" vertex="1">
          <mxGeometry x="285" y="340" width="110" height="90" as="geometry" />
        </mxCell>
        <mxCell id="6weRPcDpU1P9rH5oT9ui-17" value="" style="fontColor=#0066CC;verticalAlign=top;verticalLabelPosition=bottom;labelPosition=center;align=center;html=1;outlineConnect=0;fillColor=#CCCCCC;strokeColor=#6881B3;gradientColor=none;gradientDirection=north;strokeWidth=2;shape=mxgraph.networks.storage;" parent="1" vertex="1">
          <mxGeometry x="885" y="92.5" width="120" height="110" as="geometry" />
        </mxCell>
        <mxCell id="lzx4Aw5pMxuQN_m3yhKN-2" style="edgeStyle=orthogonalEdgeStyle;rounded=0;orthogonalLoop=1;jettySize=auto;html=1;entryX=0.5;entryY=1;entryDx=0;entryDy=0;entryPerimeter=0;" parent="1" source="6weRPcDpU1P9rH5oT9ui-18" target="6weRPcDpU1P9rH5oT9ui-17" edge="1">
          <mxGeometry relative="1" as="geometry">
            <mxPoint x="850" y="260" as="targetPoint" />
            <Array as="points">
              <mxPoint x="780" y="385" />
              <mxPoint x="780" y="202" />
            </Array>
          </mxGeometry>
        </mxCell>
        <mxCell id="6weRPcDpU1P9rH5oT9ui-18" value="&lt;font style=&quot;font-size: 14px;&quot;&gt;Webhook Service&lt;/font&gt;" style="text;html=1;align=center;verticalAlign=middle;whiteSpace=wrap;rounded=0;" parent="1" vertex="1">
          <mxGeometry x="290" y="370" width="100" height="30" as="geometry" />
        </mxCell>
        <mxCell id="6weRPcDpU1P9rH5oT9ui-20" value="&lt;font style=&quot;font-size: 14px;&quot;&gt;Card Database&lt;/font&gt;" style="text;html=1;align=center;verticalAlign=middle;resizable=0;points=[];autosize=1;strokeColor=none;fillColor=none;" parent="1" vertex="1">
          <mxGeometry x="890" y="95" width="120" height="30" as="geometry" />
        </mxCell>
        <mxCell id="6weRPcDpU1P9rH5oT9ui-21" value="" style="fontColor=#0066CC;verticalAlign=top;verticalLabelPosition=bottom;labelPosition=center;align=center;html=1;outlineConnect=0;fillColor=#CCCCCC;strokeColor=#6881B3;gradientColor=none;gradientDirection=north;strokeWidth=2;shape=mxgraph.networks.storage;" parent="1" vertex="1">
          <mxGeometry x="890" y="240" width="120" height="110" as="geometry" />
        </mxCell>
        <mxCell id="6weRPcDpU1P9rH5oT9ui-22" value="&lt;font style=&quot;font-size: 14px;&quot;&gt;Token Database&lt;/font&gt;" style="text;html=1;align=center;verticalAlign=middle;resizable=0;points=[];autosize=1;strokeColor=none;fillColor=none;" parent="1" vertex="1">
          <mxGeometry x="890" y="240" width="120" height="30" as="geometry" />
        </mxCell>
        <mxCell id="6weRPcDpU1P9rH5oT9ui-28" value="" style="rounded=0;whiteSpace=wrap;html=1;" parent="1" vertex="1">
          <mxGeometry x="610" y="220" width="110" height="90" as="geometry" />
        </mxCell>
        <mxCell id="lzx4Aw5pMxuQN_m3yhKN-3" style="edgeStyle=orthogonalEdgeStyle;rounded=0;orthogonalLoop=1;jettySize=auto;html=1;" parent="1" source="6weRPcDpU1P9rH5oT9ui-29" target="6weRPcDpU1P9rH5oT9ui-21" edge="1">
          <mxGeometry relative="1" as="geometry">
            <Array as="points">
              <mxPoint x="720" y="265" />
              <mxPoint x="720" y="295" />
            </Array>
          </mxGeometry>
        </mxCell>
        <mxCell id="6weRPcDpU1P9rH5oT9ui-29" value="&lt;font style=&quot;font-size: 14px;&quot;&gt;Token Module&lt;/font&gt;" style="text;html=1;align=center;verticalAlign=middle;whiteSpace=wrap;rounded=0;" parent="1" vertex="1">
          <mxGeometry x="620" y="250" width="100" height="30" as="geometry" />
        </mxCell>
        <mxCell id="6weRPcDpU1P9rH5oT9ui-32" value="" style="endArrow=classic;html=1;rounded=0;exitX=1;exitY=0.5;exitDx=0;exitDy=0;" parent="1" source="6weRPcDpU1P9rH5oT9ui-8" target="6weRPcDpU1P9rH5oT9ui-17" edge="1">
          <mxGeometry width="50" height="50" relative="1" as="geometry">
            <mxPoint x="414.5" y="119" as="sourcePoint" />
            <mxPoint x="740" y="120" as="targetPoint" />
          </mxGeometry>
        </mxCell>
        <mxCell id="FvqjkVRTSDlBZZYvVC_X-5" style="edgeStyle=orthogonalEdgeStyle;rounded=0;orthogonalLoop=1;jettySize=auto;html=1;exitX=1;exitY=0.5;exitDx=0;exitDy=0;entryX=0;entryY=0.25;entryDx=0;entryDy=0;" parent="1" source="6weRPcDpU1P9rH5oT9ui-36" target="6weRPcDpU1P9rH5oT9ui-51" edge="1">
          <mxGeometry relative="1" as="geometry">
            <mxPoint x="1090" y="549.9999999999999" as="targetPoint" />
            <Array as="points">
              <mxPoint x="1005" y="470" />
              <mxPoint x="1074" y="470" />
              <mxPoint x="1074" y="547" />
            </Array>
          </mxGeometry>
        </mxCell>
        <mxCell id="6weRPcDpU1P9rH5oT9ui-36" value="" style="rounded=0;whiteSpace=wrap;html=1;" parent="1" vertex="1">
          <mxGeometry x="885" y="405" width="120" height="90" as="geometry" />
        </mxCell>
        <mxCell id="6weRPcDpU1P9rH5oT9ui-37" value="&lt;span style=&quot;font-size: 14px;&quot;&gt;Hsm Driver Service 1&lt;/span&gt;" style="text;html=1;align=center;verticalAlign=middle;whiteSpace=wrap;rounded=0;" parent="1" vertex="1">
          <mxGeometry x="887.5" y="435" width="115" height="30" as="geometry" />
        </mxCell>
        <mxCell id="FvqjkVRTSDlBZZYvVC_X-3" style="edgeStyle=orthogonalEdgeStyle;rounded=0;orthogonalLoop=1;jettySize=auto;html=1;exitX=1;exitY=0.5;exitDx=0;exitDy=0;entryX=0;entryY=0.5;entryDx=0;entryDy=0;" parent="1" source="6weRPcDpU1P9rH5oT9ui-40" target="6weRPcDpU1P9rH5oT9ui-51" edge="1">
          <mxGeometry relative="1" as="geometry" />
        </mxCell>
        <mxCell id="FvqjkVRTSDlBZZYvVC_X-4" style="edgeStyle=orthogonalEdgeStyle;rounded=0;orthogonalLoop=1;jettySize=auto;html=1;exitX=1;exitY=0.5;exitDx=0;exitDy=0;entryX=0;entryY=1;entryDx=0;entryDy=0;" parent="1" source="6weRPcDpU1P9rH5oT9ui-40" target="6weRPcDpU1P9rH5oT9ui-49" edge="1">
          <mxGeometry relative="1" as="geometry">
            <Array as="points">
              <mxPoint x="1005" y="520" />
              <mxPoint x="1140" y="520" />
            </Array>
          </mxGeometry>
        </mxCell>
        <mxCell id="6weRPcDpU1P9rH5oT9ui-40" value="" style="rounded=0;whiteSpace=wrap;html=1;" parent="1" vertex="1">
          <mxGeometry x="885" y="525" width="120" height="90" as="geometry" />
        </mxCell>
        <mxCell id="6weRPcDpU1P9rH5oT9ui-41" value="&lt;span style=&quot;font-size: 14px;&quot;&gt;Hsm Driver Service 2&lt;/span&gt;" style="text;html=1;align=center;verticalAlign=middle;whiteSpace=wrap;rounded=0;" parent="1" vertex="1">
          <mxGeometry x="885" y="555" width="115" height="30" as="geometry" />
        </mxCell>
        <mxCell id="6weRPcDpU1P9rH5oT9ui-42" value="" style="html=1;outlineConnect=0;fillColor=#CCCCCC;strokeColor=#6881B3;gradientColor=none;gradientDirection=north;strokeWidth=2;shape=mxgraph.networks.cloud;fontColor=#ffffff;" parent="1" vertex="1">
          <mxGeometry x="570" y="660" width="140" height="90" as="geometry" />
        </mxCell>
        <mxCell id="6weRPcDpU1P9rH5oT9ui-43" value="&lt;span style=&quot;font-size: 14px;&quot;&gt;Sms/Email Provider&lt;/span&gt;" style="text;html=1;align=center;verticalAlign=middle;whiteSpace=wrap;rounded=0;" parent="1" vertex="1">
          <mxGeometry x="582.5" y="700" width="115" height="30" as="geometry" />
        </mxCell>
        <mxCell id="6weRPcDpU1P9rH5oT9ui-49" value="" style="rounded=0;whiteSpace=wrap;html=1;" parent="1" vertex="1">
          <mxGeometry x="1140" y="405" width="120" height="90" as="geometry" />
        </mxCell>
        <mxCell id="6weRPcDpU1P9rH5oT9ui-50" value="&lt;span style=&quot;font-size: 14px;&quot;&gt;Thales Hsm 10k1&lt;/span&gt;" style="text;html=1;align=center;verticalAlign=middle;whiteSpace=wrap;rounded=0;" parent="1" vertex="1">
          <mxGeometry x="1145" y="435" width="115" height="30" as="geometry" />
        </mxCell>
        <mxCell id="6weRPcDpU1P9rH5oT9ui-51" value="" style="rounded=0;whiteSpace=wrap;html=1;" parent="1" vertex="1">
          <mxGeometry x="1142.5" y="525" width="120" height="90" as="geometry" />
        </mxCell>
        <mxCell id="6weRPcDpU1P9rH5oT9ui-52" value="&lt;span style=&quot;font-size: 14px;&quot;&gt;Thales Hsm 10k2&lt;/span&gt;" style="text;html=1;align=center;verticalAlign=middle;whiteSpace=wrap;rounded=0;" parent="1" vertex="1">
          <mxGeometry x="1148.25" y="550" width="115" height="30" as="geometry" />
        </mxCell>
        <mxCell id="6weRPcDpU1P9rH5oT9ui-53" value="" style="endArrow=classic;html=1;rounded=0;entryX=0;entryY=0.5;entryDx=0;entryDy=0;exitX=1;exitY=0.5;exitDx=0;exitDy=0;" parent="1" source="6weRPcDpU1P9rH5oT9ui-36" target="6weRPcDpU1P9rH5oT9ui-49" edge="1">
          <mxGeometry width="50" height="50" relative="1" as="geometry">
            <mxPoint x="1060" y="480" as="sourcePoint" />
            <mxPoint x="1137.5" y="454.5" as="targetPoint" />
          </mxGeometry>
        </mxCell>
        <mxCell id="Pp6j7_KrwNxRFyxW2bY_-1" value="&lt;font style=&quot;font-size: 17px;&quot;&gt;Generate Card Emboss File&lt;/font&gt;" style="text;html=1;align=center;verticalAlign=middle;whiteSpace=wrap;rounded=0;fontSize=17;" parent="1" vertex="1">
          <mxGeometry x="1179.25" y="65" width="240.75" height="30" as="geometry" />
        </mxCell>
        <mxCell id="Pp6j7_KrwNxRFyxW2bY_-2" value="" style="shape=waypoint;sketch=0;fillStyle=solid;size=6;pointerEvents=1;points=[];fillColor=none;resizable=0;rotatable=0;perimeter=centerPerimeter;snapToPoint=1;" parent="1" vertex="1">
          <mxGeometry x="1178.25" y="70" width="20" height="20" as="geometry" />
        </mxCell>
        <mxCell id="Pp6j7_KrwNxRFyxW2bY_-3" value="&lt;span style=&quot;font-size: 20px;&quot;&gt;&lt;b&gt;Batch Details&lt;/b&gt;&lt;/span&gt;" style="text;html=1;align=center;verticalAlign=middle;whiteSpace=wrap;rounded=0;fontSize=17;" parent="1" vertex="1">
          <mxGeometry x="1220" y="30" width="141.75" height="30" as="geometry" />
        </mxCell>
        <mxCell id="Pp6j7_KrwNxRFyxW2bY_-4" value="&lt;font style=&quot;font-size: 17px;&quot;&gt;Load Clearing File&lt;/font&gt;" style="text;html=1;align=center;verticalAlign=middle;whiteSpace=wrap;rounded=0;fontSize=17;" parent="1" vertex="1">
          <mxGeometry x="1148.25" y="95" width="231.75" height="30" as="geometry" />
        </mxCell>
        <mxCell id="Pp6j7_KrwNxRFyxW2bY_-5" value="" style="shape=waypoint;sketch=0;fillStyle=solid;size=6;pointerEvents=1;points=[];fillColor=none;resizable=0;rotatable=0;perimeter=centerPerimeter;snapToPoint=1;" parent="1" vertex="1">
          <mxGeometry x="1179.25" y="100" width="20" height="20" as="geometry" />
        </mxCell>
        <mxCell id="Pp6j7_KrwNxRFyxW2bY_-6" value="&lt;font style=&quot;font-size: 17px;&quot;&gt;Generates Reports&lt;/font&gt;" style="text;html=1;align=center;verticalAlign=middle;whiteSpace=wrap;rounded=0;fontSize=17;" parent="1" vertex="1">
          <mxGeometry x="1158.25" y="120" width="221.75" height="30" as="geometry" />
        </mxCell>
        <mxCell id="Pp6j7_KrwNxRFyxW2bY_-7" value="" style="shape=waypoint;sketch=0;fillStyle=solid;size=6;pointerEvents=1;points=[];fillColor=none;resizable=0;rotatable=0;perimeter=centerPerimeter;snapToPoint=1;" parent="1" vertex="1">
          <mxGeometry x="1178.25" y="125" width="20" height="20" as="geometry" />
        </mxCell>
        <mxCell id="Pp6j7_KrwNxRFyxW2bY_-8" value="&lt;font style=&quot;font-size: 17px;&quot;&gt;Eod Jobs&lt;/font&gt;" style="text;html=1;align=center;verticalAlign=middle;whiteSpace=wrap;rounded=0;fontSize=17;" parent="1" vertex="1">
          <mxGeometry x="1179.25" y="145" width="110.75" height="30" as="geometry" />
        </mxCell>
        <mxCell id="Pp6j7_KrwNxRFyxW2bY_-9" value="" style="shape=waypoint;sketch=0;fillStyle=solid;size=6;pointerEvents=1;points=[];fillColor=none;resizable=0;rotatable=0;perimeter=centerPerimeter;snapToPoint=1;" parent="1" vertex="1">
          <mxGeometry x="1178.25" y="150" width="20" height="20" as="geometry" />
        </mxCell>
        <mxCell id="pT2yPr4pSlSUedc0J4UR-1" style="edgeStyle=orthogonalEdgeStyle;rounded=0;orthogonalLoop=1;jettySize=auto;html=1;exitX=1.002;exitY=0.881;exitDx=0;exitDy=0;exitPerimeter=0;" parent="1" source="6weRPcDpU1P9rH5oT9ui-10" edge="1">
          <mxGeometry relative="1" as="geometry">
            <mxPoint x="650" y="650" as="targetPoint" />
            <Array as="points">
              <mxPoint x="390" y="299" />
              <mxPoint x="390" y="330" />
              <mxPoint x="650" y="330" />
            </Array>
            <mxPoint x="390" y="300" as="sourcePoint" />
          </mxGeometry>
        </mxCell>
        <mxCell id="FvqjkVRTSDlBZZYvVC_X-1" style="edgeStyle=orthogonalEdgeStyle;rounded=0;orthogonalLoop=1;jettySize=auto;html=1;exitX=0.5;exitY=1;exitDx=0;exitDy=0;entryX=1;entryY=0.25;entryDx=0;entryDy=0;entryPerimeter=0;" parent="1" source="6weRPcDpU1P9rH5oT9ui-14" target="6weRPcDpU1P9rH5oT9ui-5" edge="1">
          <mxGeometry relative="1" as="geometry" />
        </mxCell>
        <mxCell id="DCrG8_Zui0ShofcKxdxm-2" style="edgeStyle=orthogonalEdgeStyle;rounded=0;orthogonalLoop=1;jettySize=auto;html=1;exitX=1;exitY=0.5;exitDx=0;exitDy=0;entryX=1;entryY=0.5;entryDx=0;entryDy=0;entryPerimeter=0;" parent="1" source="6weRPcDpU1P9rH5oT9ui-36" target="6weRPcDpU1P9rH5oT9ui-17" edge="1">
          <mxGeometry relative="1" as="geometry" />
        </mxCell>
        <mxCell id="DCrG8_Zui0ShofcKxdxm-3" style="edgeStyle=orthogonalEdgeStyle;rounded=0;orthogonalLoop=1;jettySize=auto;html=1;exitX=1;exitY=0.5;exitDx=0;exitDy=0;entryX=1.031;entryY=0.9;entryDx=0;entryDy=0;entryPerimeter=0;" parent="1" source="6weRPcDpU1P9rH5oT9ui-40" target="6weRPcDpU1P9rH5oT9ui-20" edge="1">
          <mxGeometry relative="1" as="geometry">
            <Array as="points">
              <mxPoint x="1005" y="600" />
              <mxPoint x="1080" y="600" />
              <mxPoint x="1080" y="122" />
            </Array>
          </mxGeometry>
        </mxCell>
      </root>
    </mxGraphModel>
  </diagram>
</mxfile>
